<?xml version="1.0" encoding="utf-8"?>
<!-- Generator: Adobe Illustrator 22.0.1, SVG Export Plug-In . SVG Version: 6.00 Build 0)  -->
<svg version="1.1" id="Layer_1" xmlns="http://www.w3.org/2000/svg" xmlns:xlink="http://www.w3.org/1999/xlink" x="0px" y="0px"
	 width="1500px" height="1500px" viewBox="0 0 1500 1500" style="enable-background:new 0 0 1500 1500;" xml:space="preserve">
<style type="text/css">
	.st0{fill:#333;}
</style>
<g>
	<path class="st0" d="M587.2,1288.2c-41.7-12.2-60.2-44.2-56.4-81.6l36.6,10.7c1.3,17.9,9.1,32,29.5,38c28.2,8.3,52.2-11.6,62-45.3
		c9.8-33.4,0.4-63.3-27.8-71.6c-20.4-6-34.6,1.7-45.4,16.4l-36.6-10.7c17.1-33.8,49.9-50.7,91.6-38.5
		c47.2,13.8,71.4,61.3,55.6,115.4C680.4,1275.2,634.4,1302.1,587.2,1288.2z"/>
	<path class="st0" d="M436.9,951c27.7,43.2,13.2,94.9-33,124.6c-46.4,29.8-99.3,21.3-127-21.8c-27.7-43.2-13.6-95,32.9-124.8
		C355.9,899.2,409.2,907.8,436.9,951z M305.6,1035.3c15.7,24.5,46.9,26.9,77.2,7.5c30.3-19.5,41-48.8,25.3-73.3
		c-15.9-24.7-47.2-27.4-77.5-8C300.3,980.9,289.8,1010.5,305.6,1035.3z"/>
	<path class="st0" d="M187.8,745.3l4.3-38.2l149.4,16.7l9.6-85.3l33.7,3.8l-13.8,123.4L187.8,745.3z"/>
	<path class="st0" d="M300.4,412.4l26.1-28.1l110.2,102.3l58.4-62.9l24.8,23.1l-84.5,91L300.4,412.4z"/>
	<path class="st0" d="M712.1,188.2l6.1,33l-85.8,15.9l7.3,39.5l77.9-14.4l6,32.2l-77.9,14.4l8,43.1l85.8-15.9l6.2,33.3l-123,22.8
		L589.1,211L712.1,188.2z"/>
	<path class="st0" d="M1017.4,255.4c38.4,20.4,50.1,55.4,38.8,91.3l-33.7-17.9c2.3-17.8-2.4-33.2-21.2-43.2
		c-26-13.8-53.4,0.8-69.9,31.8c-16.3,30.7-13.2,61.9,12.8,75.7c18.8,10,34.2,5.3,47.8-6.9l33.7,17.9c-23.5,29.6-59.1,39.6-97.5,19.2
		c-43.5-23.1-57.6-74.4-31.2-124.2S974,232.3,1017.4,255.4z"/>
	<path class="st0" d="M1233.7,458.6l61.7,144.6l-30.9,13.2l-23.3-54.6l-138.5,59.1l-15.2-35.6l138.5-59.1l-23.2-54.4L1233.7,458.6z"
		/>
	<path class="st0" d="M1116.9,830.4l6.2-37.9l181.8,29.9l-6.2,37.9L1116.9,830.4z"/>
	<path class="st0" d="M1073,949.1l140.3,119.4l-79.5,93.5l-25.6-21.8l54.8-64.4l-35.6-30.3l-50.7,59.6l-25.4-21.6l50.7-59.6
		l-53.7-45.7L1073,949.1z"/>
	<path class="st0" d="M922.3,1188.3l-114.9,29.1l-6.6-26.2l114.9-29.1L922.3,1188.3z"/>
</g>
</svg>
