<?xml version="1.0" encoding="UTF-8"?>
<svg width="600px" height="800px" viewBox="0 0 600 800" version="1.1" xmlns="http://www.w3.org/2000/svg" xmlns:xlink="http://www.w3.org/1999/xlink">
    <!-- Generator: Sketch 43.2 (39069) - http://www.bohemiancoding.com/sketch -->
    <title>tripps_icon</title>
    <desc>Created with Sketch.</desc>
    <defs></defs>
    <g id="Page-1" stroke="none" stroke-width="1" fill="none" fill-rule="evenodd">
        <g id="tripps_icon" fill-rule="nonzero">
            <polygon id="Shape" fill="#364655" points="0 0 600 0 600 800 0 800"></polygon>
            <path d="M402,408.3 L399.5,402.1 C367.6,325.2 309.3,272.3 306.8,270.1 L300,264 L293.3,270.1 C290.8,272.3 232.5,325.2 200.6,402.1 L198.1,408.3 L300.1,510.3 L402,408.3 Z M310.1,360.4 C320,352.6 330.8,346.6 342.5,342 C348.2,350.1 354.1,358.9 359.7,368.1 C339.5,374.5 322.5,386.8 310.1,403 L310.1,360.4 Z M289.9,403 C277.6,386.8 260.6,374.3 240.3,368.1 C245.9,358.7 251.8,350.1 257.5,342 C269.1,346.6 279.9,352.6 289.9,360.4 L289.9,403 Z M310.1,471.5 L310.1,462.6 C310.6,426.2 335,395.2 369.8,386.3 C372.7,391.9 375.5,397.6 378.1,403.7 L310.1,471.5 Z M329.8,325.3 C322.9,328.3 316.3,331.7 310.1,335.7 L310.1,302.2 C315.8,308.3 322.8,316.2 329.8,325.3 Z M289.9,302.3 L289.9,335.8 C283.7,331.8 276.9,328.4 270.2,325.4 C277.4,316.2 284.2,308.3 289.9,302.3 Z M230.2,386.2 C265.1,395.3 289.7,426.5 289.9,463.1 L289.9,463.6 L289.9,471.5 L222,403.6 C224.7,397.7 227.4,391.9 230.2,386.2 L230.2,386.2 Z" id="Shape" fill="#FFFFFF"></path>
            <path d="M355.3,537.2 L244.9,537.2 C242,537.2 240,539.4 240,541.9 L240,559.3 C240,561.8 242,564 244.9,564 L283.5,564 L316.5,564 L355.1,564 C358,564 360,561.8 360,559.3 L360,541.9 C360.2,539.4 358.1,537.2 355.3,537.2 Z" id="Shape" fill="#69B342"></path>
        </g>
    </g>
</svg>