<?xml version="1.0" encoding="utf-8"?>
<!-- Generator: Adobe Illustrator 22.1.0, SVG Export Plug-In . SVG Version: 6.00 Build 0)  -->
<svg version="1.1" id="Layer_1" xmlns="http://www.w3.org/2000/svg" xmlns:xlink="http://www.w3.org/1999/xlink" x="0px" y="0px"
	 width="1000px" height="1000px" viewBox="0 0 1000 1000" style="enable-background:new 0 0 1000 1000;" xml:space="preserve">
<style type="text/css">
	.st0{opacity:0.1;fill:#F2B826;}
	.st1{fill:#F2B826;}
</style>
<rect class="st0" width="1000" height="1000"/>
<g>
	<path class="st1" d="M500,298.5c-110.5,0-200,89.5-200,200c0,2.7,0.1,5.3,0.2,8c11.6,0,16.5,3,23.9,7.4
		c9.3,5.6,20.9,12.6,42.6,12.6c21.7,0,33.3-7,42.6-12.6c7.5-4.5,12.4-7.4,24.1-7.4c11.7,0,16.6,3,24.1,7.4
		c9.3,5.6,20.9,12.6,42.6,12.6c21.7,0,33.3-7,42.6-12.6c7.5-4.5,12.4-7.4,24.1-7.4c11.7,0,16.6,3,24.1,7.4
		c9.3,5.6,20.9,12.6,42.6,12.6c21.7,0,33.3-7,42.6-12.6c7.4-4.5,12.3-7.4,23.9-7.4c0.1-2.7,0.2-5.3,0.2-8
		C700,388,610.5,298.5,500,298.5z M657.4,483.1c-7.5,4.5-12.4,7.4-24.1,7.4c-11.7,0-16.6-3-24.1-7.4c-9.3-5.6-20.9-12.6-42.6-12.6
		c-21.7,0-33.3,7-42.6,12.6c-7.5,4.5-12.4,7.4-24.1,7.4c-11.7,0-16.6-3-24.1-7.4c-9.3-5.6-20.9-12.6-42.6-12.6
		c-21.7,0-33.3,7-42.6,12.6c-7.5,4.5-12.4,7.4-24.1,7.4c-11.7,0-16.6-3-24.1-7.4c-1.7-1-3.6-2.1-5.5-3.2
		c9.3-81.7,78.8-145.3,162.9-145.3c84.1,0,153.6,63.7,162.9,145.3C661,480.9,659.2,482,657.4,483.1z"/>
	<path class="st1" d="M633.3,570.5c-11.7,0-16.6-3-24.1-7.4c-9.3-5.6-20.9-12.6-42.6-12.6c-21.7,0-33.3,7-42.6,12.6
		c-7.5,4.5-12.4,7.4-24.1,7.4c-11.7,0-16.6-3-24.1-7.4c-9.3-5.6-20.9-12.6-42.6-12.6c-21.7,0-33.3,7-42.6,12.6
		c-7.5,4.5-12.4,7.4-24.1,7.4c-11.7,0-16.6-3-24.1-7.4c-8.3-5-18.4-11-35.7-12.3c4.1,15.2,10,29.7,17.3,43.3
		c9.3,5.6,20.9,12.5,42.4,12.5c21.7,0,33.3-7,42.6-12.6c7.5-4.5,12.4-7.4,24.1-7.4c11.7,0,16.6,3,24.1,7.4
		c9.3,5.6,20.9,12.6,42.6,12.6c21.7,0,33.3-7,42.6-12.6c7.5-4.5,12.4-7.4,24.1-7.4c11.7,0,16.6,3,24.1,7.4
		c9.3,5.6,20.9,12.6,42.6,12.6c21.5,0,33.1-6.9,42.4-12.5c7.4-13.6,13.2-28.1,17.3-43.3c-17.3,1.3-27.4,7.3-35.7,12.3
		C649.9,567.5,645,570.5,633.3,570.5z"/>
	<path class="st1" d="M566.7,630.5c-21.7,0-33.3,7-42.6,12.6c-7.5,4.5-12.4,7.4-24.1,7.4c-11.7,0-16.6-3-24.1-7.4
		c-9.3-5.6-20.9-12.6-42.6-12.6c-21.7,0-33.3,7-42.6,12.6c-6.7,4-11.4,6.8-20.8,7.3c11.3,9.6,23.6,18.1,36.8,25
		c0.9-0.5,1.7-1,2.5-1.5c7.5-4.5,12.4-7.4,24.1-7.4c11.7,0,16.6,3,24.1,7.4c9.3,5.6,20.9,12.6,42.6,12.6c21.7,0,33.3-7,42.6-12.6
		c7.5-4.5,12.4-7.4,24.1-7.4c11.7,0,16.6,3,24.1,7.4c0.8,0.5,1.7,1,2.5,1.5c13.2-7,25.6-15.4,36.8-25c-9.4-0.5-14.1-3.3-20.8-7.3
		C599.9,637.5,588.3,630.5,566.7,630.5z"/>
</g>
</svg>
