<?xml version="1.0" encoding="utf-8"?>
<!-- Generator: Adobe Illustrator 22.1.0, SVG Export Plug-In . SVG Version: 6.00 Build 0)  -->
<svg version="1.1" id="Layer_1" xmlns="http://www.w3.org/2000/svg" xmlns:xlink="http://www.w3.org/1999/xlink" x="0px" y="0px"
	 width="600px" height="800px" viewBox="0 0 600 800" style="enable-background:new 0 0 600 800;" xml:space="preserve">
<style type="text/css">
	.st0{fill:#1A4744;}
	.st1{fill:#BEA859;}
</style>
<title>tripps_icon</title>
<desc>Created with Sketch.</desc>
<g>
	<g>
		<path class="st0" d="M164.9,237.7c0.1,0.2,0.1,0.2,0.2,0.2c0.1,0,0.2-0.1,0.2-0.2l6.5-23.3c0.1-0.5,0.5-0.8,1-0.8h4.8
			c0.3,0,0.5,0.1,0.7,0.3c0.2,0.2,0.3,0.4,0.3,0.7v31.2c0,0.3-0.1,0.5-0.3,0.7c-0.2,0.2-0.4,0.3-0.7,0.3h-2.5
			c-0.3,0-0.5-0.1-0.7-0.3c-0.2-0.2-0.3-0.4-0.3-0.7V222c0-0.2-0.1-0.2-0.2-0.2c-0.1,0-0.2,0-0.2,0.1l-6.8,23.8
			c-0.2,0.5-0.5,0.8-1,0.8h-2c-0.5,0-0.8-0.3-1-0.8l-6.8-23.8c0-0.1-0.1-0.1-0.2-0.1c-0.1,0-0.2,0.1-0.2,0.2v23.6
			c0,0.3-0.1,0.5-0.3,0.7c-0.2,0.2-0.4,0.3-0.7,0.3h-2.5c-0.3,0-0.5-0.1-0.7-0.3c-0.2-0.2-0.3-0.4-0.3-0.7v-31.2
			c0-0.3,0.1-0.5,0.3-0.7c0.2-0.2,0.4-0.3,0.7-0.3h4.8c0.5,0,0.9,0.3,1,0.8L164.9,237.7z"/>
		<path class="st0" d="M202.3,238.7c-0.1-0.4-0.4-0.7-0.9-0.7h-7.8c-0.4,0-0.7,0.2-0.9,0.7l-2.1,7.2c-0.2,0.5-0.5,0.7-0.9,0.7h-2.6
			c-0.4,0-0.6-0.1-0.8-0.3c-0.2-0.2-0.2-0.4-0.1-0.6l8.8-31.4c0.1-0.5,0.4-0.7,0.9-0.7h3.3c0.5,0,0.8,0.2,0.9,0.7l8.8,31.4
			c0.1,0.2,0,0.4-0.1,0.6c-0.2,0.2-0.4,0.3-0.8,0.3h-2.6c-0.4,0-0.7-0.2-0.9-0.7L202.3,238.7z M200.4,233.6c0.3,0,0.5-0.2,0.4-0.5
			l-3.1-13.2c-0.1-0.2-0.1-0.3-0.2-0.3h-0.1c-0.1,0-0.2,0.1-0.2,0.3l-3.1,13.2c-0.1,0.3,0,0.5,0.4,0.5H200.4z"/>
		<path class="st0" d="M231.3,246.6c-0.3,0-0.4,0-0.6-0.1c-0.1-0.1-0.3-0.3-0.4-0.7l-9.3-23.4c-0.1-0.1-0.1-0.1-0.2-0.1
			c-0.1,0-0.1,0.1-0.1,0.2v23.1c0,0.3-0.1,0.5-0.3,0.7c-0.2,0.2-0.4,0.3-0.7,0.3h-2.4c-0.3,0-0.5-0.1-0.7-0.3
			c-0.2-0.2-0.3-0.4-0.3-0.7v-31.2c0-0.3,0.1-0.5,0.3-0.7c0.2-0.2,0.4-0.3,0.7-0.3h3.9c0.3,0,0.4,0,0.6,0.1c0.1,0.1,0.3,0.3,0.4,0.7
			l9.3,23.3c0.1,0.1,0.1,0.1,0.2,0.1c0.1,0,0.1-0.1,0.1-0.2v-23c0-0.3,0.1-0.5,0.3-0.7c0.2-0.2,0.4-0.3,0.7-0.3h2.4
			c0.3,0,0.5,0.1,0.7,0.3c0.2,0.2,0.3,0.4,0.3,0.7v31.2c0,0.3-0.1,0.5-0.3,0.7c-0.2,0.2-0.4,0.3-0.7,0.3H231.3z"/>
		<path class="st0" d="M251.1,245.7c0,0.3-0.1,0.5-0.3,0.7c-0.2,0.2-0.4,0.3-0.7,0.3h-2.6c-0.3,0-0.5-0.1-0.7-0.3
			c-0.2-0.2-0.3-0.4-0.3-0.7v-31.2c0-0.3,0.1-0.5,0.3-0.7c0.2-0.2,0.4-0.3,0.7-0.3h2.6c0.3,0,0.5,0.1,0.7,0.3
			c0.2,0.2,0.3,0.4,0.3,0.7V245.7z"/>
		<path class="st0" d="M270.7,218.5v27.2c0,0.3-0.1,0.5-0.3,0.7c-0.2,0.2-0.4,0.3-0.7,0.3h-2.6c-0.3,0-0.5-0.1-0.7-0.3
			c-0.2-0.2-0.3-0.4-0.3-0.7v-27.2c0-0.3-0.2-0.5-0.5-0.5h-6.3c-0.3,0-0.5-0.1-0.7-0.3c-0.2-0.2-0.3-0.4-0.3-0.7v-2.6
			c0-0.3,0.1-0.5,0.3-0.7c0.2-0.2,0.4-0.3,0.7-0.3h17.9c0.3,0,0.5,0.1,0.7,0.3c0.2,0.2,0.3,0.4,0.3,0.7v2.6c0,0.3-0.1,0.5-0.3,0.7
			c-0.2,0.2-0.4,0.3-0.7,0.3h-6.2C270.8,218,270.7,218.2,270.7,218.5z"/>
		<path class="st0" d="M294.8,213.2c1.4,0,2.7,0.2,3.9,0.7c1.2,0.5,2.3,1.1,3.2,2c0.9,0.8,1.7,1.9,2.3,3.1c0.6,1.2,1,2.6,1.2,4.1
			c0.1,0.9,0.2,2,0.3,3.3c0,1.2,0.1,2.5,0.1,3.8c0,1.3,0,2.6-0.1,3.8c-0.1,1.2-0.1,2.3-0.2,3.3c-0.2,1.3-0.5,2.5-1,3.7
			c-0.5,1.2-1.3,2.2-2.1,3.1c-0.9,0.9-2,1.6-3.2,2.1c-1.3,0.5-2.7,0.8-4.2,0.8c-1.4,0-2.7-0.2-3.9-0.7c-1.2-0.5-2.3-1.1-3.2-2
			c-0.9-0.8-1.7-1.9-2.3-3.1c-0.6-1.2-1-2.6-1.2-4.1c-0.1-0.9-0.2-2-0.3-3.3c-0.1-1.2-0.1-2.5-0.1-3.8c0-1.3,0-2.6,0.1-3.8
			c0.1-1.2,0.2-2.3,0.3-3.3c0.2-1.3,0.5-2.5,1-3.7c0.5-1.2,1.3-2.2,2.1-3.1c0.9-0.9,2-1.6,3.2-2.2
			C291.8,213.4,293.2,213.2,294.8,213.2z M294.8,242.5c1.6,0,3-0.5,4.1-1.4c1.1-0.9,1.8-2.2,2.1-3.9c0.1-1,0.2-2.1,0.3-3.3
			c0.1-1.2,0.1-2.5,0.1-3.8c0-1.3,0-2.5-0.1-3.8c-0.1-1.2-0.2-2.3-0.3-3.3c-0.1-0.7-0.3-1.4-0.6-2c-0.3-0.6-0.7-1.2-1.2-1.7
			c-0.5-0.5-1.1-0.9-1.8-1.2c-0.7-0.3-1.5-0.4-2.5-0.4c-1.5,0-2.9,0.5-4.1,1.4c-1.2,0.9-1.9,2.2-2.1,4c-0.1,1-0.2,2.1-0.3,3.3
			c-0.1,1.2-0.1,2.5-0.1,3.8c0,1.3,0,2.5,0.1,3.8c0.1,1.2,0.2,2.3,0.3,3.3c0.1,0.7,0.3,1.4,0.6,2c0.3,0.6,0.7,1.2,1.2,1.7
			c0.5,0.5,1.1,0.9,1.9,1.2C293,242.3,293.9,242.5,294.8,242.5z"/>
		<path class="st0" d="M324.9,213.5c1.3,0,2.5,0.2,3.6,0.7c1.1,0.4,2.1,1,3,1.8c0.8,0.8,1.5,1.7,2,2.8c0.5,1.1,0.7,2.3,0.7,3.5
			c0,1.1-0.2,2.2-0.7,3.4s-1.1,2.2-2,3c-0.4,0.4-0.4,0.7,0,1c1,0.8,1.8,1.9,2.4,3.2c0.6,1.3,0.9,2.7,0.9,4c0,1.4-0.3,2.7-0.8,3.8
			c-0.5,1.2-1.2,2.2-2.1,3c-0.9,0.9-2,1.5-3.2,2c-1.2,0.5-2.5,0.7-3.8,0.7h-8.7c-0.3,0-0.5-0.1-0.7-0.3c-0.2-0.2-0.3-0.4-0.3-0.7
			v-31.2c0-0.3,0.1-0.5,0.3-0.7c0.2-0.2,0.4-0.3,0.7-0.3H324.9z M324.9,227.1c1.5,0,2.7-0.5,3.5-1.4c0.8-0.9,1.2-2.1,1.2-3.4
			c0-0.7-0.1-1.3-0.4-1.8c-0.3-0.5-0.6-1-1.1-1.3s-1-0.6-1.5-0.8s-1.2-0.3-1.8-0.3h-4.8c-0.3,0-0.5,0.2-0.5,0.5v8.2
			c0,0.3,0.2,0.5,0.5,0.5H324.9z M320.1,231.4c-0.1-0.1-0.2,0-0.3,0.1c-0.1,0.1-0.1,0.2-0.1,0.4v9.8c0,0.3,0.2,0.5,0.5,0.5h4.8
			c0.7,0,1.4-0.1,2.1-0.4c0.7-0.3,1.2-0.6,1.7-1.1c0.5-0.5,0.9-1,1.2-1.6c0.3-0.6,0.4-1.3,0.4-2c0-0.8-0.2-1.6-0.4-2.3
			c-0.3-0.7-0.7-1.3-1.2-1.8c-0.5-0.5-1.1-0.9-1.7-1.1c-0.7-0.3-1.4-0.4-2.1-0.4H320.1z"/>
		<path class="st0" d="M356.6,238.7c-0.1-0.4-0.4-0.7-0.9-0.7h-7.8c-0.4,0-0.7,0.2-0.9,0.7l-2.1,7.2c-0.2,0.5-0.5,0.7-0.9,0.7h-2.6
			c-0.4,0-0.6-0.1-0.8-0.3c-0.2-0.2-0.2-0.4-0.1-0.6l8.8-31.4c0.1-0.5,0.4-0.7,0.9-0.7h3.3c0.5,0,0.8,0.2,0.9,0.7l8.8,31.4
			c0.1,0.2,0,0.4-0.1,0.6c-0.2,0.2-0.4,0.3-0.8,0.3h-2.6c-0.4,0-0.7-0.2-0.9-0.7L356.6,238.7z M354.7,233.6c0.3,0,0.5-0.2,0.4-0.5
			l-3.1-13.2c-0.1-0.2-0.1-0.3-0.2-0.3h-0.1c-0.1,0-0.2,0.1-0.2,0.3l-3.1,13.2c-0.1,0.3,0,0.5,0.4,0.5H354.7z"/>
		<path class="st0" d="M161.3,270.2c1.3,0,2.5,0.2,3.6,0.7c1.1,0.4,2.1,1,3,1.8c0.8,0.8,1.5,1.7,2,2.8c0.5,1.1,0.7,2.3,0.7,3.5
			c0,1.1-0.2,2.2-0.7,3.4c-0.4,1.2-1.1,2.2-2,3c-0.4,0.4-0.4,0.7,0,1c1,0.8,1.8,1.9,2.4,3.2c0.6,1.3,0.9,2.7,0.9,4
			c0,1.4-0.3,2.7-0.8,3.8c-0.5,1.2-1.2,2.2-2.1,3c-0.9,0.9-2,1.5-3.2,2c-1.2,0.5-2.5,0.7-3.8,0.7h-8.7c-0.3,0-0.5-0.1-0.7-0.3
			c-0.2-0.2-0.3-0.4-0.3-0.7v-31.2c0-0.3,0.1-0.5,0.3-0.7c0.2-0.2,0.4-0.3,0.7-0.3H161.3z M161.3,283.8c1.5,0,2.7-0.5,3.5-1.4
			c0.8-0.9,1.2-2.1,1.2-3.4c0-0.7-0.1-1.3-0.4-1.8c-0.3-0.5-0.6-1-1.1-1.3c-0.4-0.4-1-0.6-1.5-0.8s-1.2-0.3-1.8-0.3h-4.8
			c-0.3,0-0.5,0.2-0.5,0.5v8.2c0,0.3,0.2,0.5,0.5,0.5H161.3z M156.5,288.1c-0.1-0.1-0.2,0-0.3,0.1c-0.1,0.1-0.1,0.2-0.1,0.4v9.8
			c0,0.3,0.2,0.5,0.5,0.5h4.8c0.7,0,1.4-0.1,2.1-0.4c0.7-0.3,1.2-0.6,1.7-1.1c0.5-0.5,0.9-1,1.2-1.6c0.3-0.6,0.4-1.3,0.4-2
			c0-0.8-0.2-1.6-0.4-2.3c-0.3-0.7-0.7-1.3-1.2-1.8c-0.5-0.5-1.1-0.9-1.7-1.1c-0.7-0.3-1.4-0.4-2.1-0.4H156.5z"/>
		<path class="st0" d="M193,295.3c-0.1-0.4-0.4-0.7-0.9-0.7h-7.8c-0.4,0-0.7,0.2-0.9,0.7l-2.1,7.2c-0.2,0.5-0.5,0.7-0.9,0.7h-2.6
			c-0.4,0-0.6-0.1-0.8-0.3c-0.2-0.2-0.2-0.4-0.1-0.6l8.8-31.4c0.1-0.5,0.4-0.7,0.9-0.7h3.3c0.5,0,0.8,0.2,0.9,0.7l8.8,31.4
			c0.1,0.2,0,0.4-0.1,0.6c-0.2,0.2-0.4,0.3-0.8,0.3H196c-0.4,0-0.7-0.2-0.9-0.7L193,295.3z M191.1,290.3c0.3,0,0.5-0.2,0.4-0.5
			l-3.1-13.2c-0.1-0.2-0.1-0.3-0.2-0.3h-0.1c-0.1,0-0.2,0.1-0.2,0.3l-3.1,13.2c-0.1,0.3,0,0.5,0.4,0.5H191.1z"/>
		<path class="st0" d="M222.1,293.8c0-1.1-0.2-2-0.6-2.6c-0.4-0.7-0.9-1.2-1.6-1.6c-0.7-0.4-1.5-0.8-2.5-1c-1-0.3-2.1-0.5-3.3-0.8
			c-1.2-0.3-2.2-0.6-3.2-1.1c-1-0.5-1.8-1.1-2.5-1.8c-0.7-0.7-1.2-1.6-1.6-2.6c-0.4-1-0.6-2.2-0.6-3.4c0-1.4,0.3-2.7,0.8-3.8
			c0.6-1.1,1.3-2,2.2-2.8c0.9-0.8,2-1.3,3.1-1.7c1.2-0.4,2.4-0.6,3.6-0.6c1.4,0,2.7,0.2,3.8,0.7c1.2,0.5,2.2,1.1,3.1,1.9
			c0.9,0.8,1.5,1.7,2,2.8c0.5,1.1,0.7,2.2,0.7,3.4v0.6c0,0.3-0.1,0.5-0.3,0.7c-0.2,0.2-0.4,0.3-0.7,0.3h-2.6c-0.3,0-0.5-0.1-0.7-0.3
			c-0.2-0.2-0.3-0.4-0.3-0.7v-0.6c0-0.8-0.2-1.5-0.5-2c-0.3-0.6-0.7-1-1.2-1.4c-0.5-0.4-1.1-0.6-1.7-0.8c-0.6-0.2-1.2-0.2-1.8-0.2
			c-1.5,0-2.8,0.4-3.8,1.2c-1,0.8-1.4,1.9-1.4,3.2c0,1,0.2,1.9,0.7,2.5c0.5,0.6,1,1.1,1.7,1.5c0.7,0.4,1.5,0.6,2.3,0.8
			c0.8,0.2,1.6,0.4,2.4,0.6c2.7,0.7,4.8,1.8,6.4,3.4c1.6,1.6,2.4,3.7,2.4,6.4c0,1.5-0.3,2.9-0.9,4.1c-0.6,1.2-1.4,2.2-2.4,3.1
			c-1,0.9-2.1,1.5-3.4,2c-1.3,0.5-2.6,0.7-4,0.7c-1.5,0-2.9-0.3-4.2-0.8c-1.3-0.5-2.4-1.2-3.4-2.1c-0.9-0.9-1.7-1.9-2.2-3.1
			c-0.5-1.2-0.8-2.4-0.8-3.8v-0.8c0-0.3,0.1-0.5,0.3-0.7c0.2-0.2,0.4-0.3,0.7-0.3h2.6c0.3,0,0.5,0.1,0.7,0.3
			c0.2,0.2,0.3,0.4,0.3,0.7v0.8c0,0.8,0.1,1.5,0.4,2.1c0.3,0.7,0.7,1.2,1.3,1.7c0.6,0.5,1.2,0.8,1.9,1.1c0.7,0.3,1.5,0.4,2.4,0.4
			c0.9,0,1.7-0.1,2.4-0.4c0.7-0.3,1.4-0.6,1.9-1.1c0.6-0.5,1-1.1,1.3-1.7C222,295.3,222.1,294.6,222.1,293.8z"/>
		<path class="st0" d="M239.9,298.3c0,0.3,0.2,0.5,0.5,0.5h11.3c0.3,0,0.5,0.1,0.7,0.3s0.3,0.4,0.3,0.7v2.6c0,0.3-0.1,0.5-0.3,0.7
			c-0.2,0.2-0.4,0.3-0.7,0.3h-15.3c-0.3,0-0.5-0.1-0.7-0.3c-0.2-0.2-0.3-0.4-0.3-0.7v-31.2c0-0.3,0.1-0.5,0.3-0.7
			c0.2-0.2,0.4-0.3,0.7-0.3h15.3c0.3,0,0.5,0.1,0.7,0.3c0.2,0.2,0.3,0.4,0.3,0.7v2.6c0,0.3-0.1,0.5-0.3,0.7
			c-0.2,0.2-0.4,0.3-0.7,0.3h-11.2c-0.3,0-0.5,0.2-0.5,0.5v8.5c0,0.3,0.2,0.5,0.5,0.5h10.7c0.3,0,0.5,0.1,0.7,0.3s0.3,0.4,0.3,0.7
			v2.6c0,0.3-0.1,0.5-0.3,0.7c-0.2,0.2-0.4,0.3-0.7,0.3h-10.7c-0.3,0-0.5,0.2-0.5,0.5V298.3z"/>
		<path class="st0" d="M271.5,270.2c1.3,0,2.5,0.2,3.6,0.7c1.1,0.4,2.1,1,3,1.8c0.8,0.8,1.5,1.7,2,2.8c0.5,1.1,0.7,2.3,0.7,3.5
			c0,1.1-0.2,2.2-0.7,3.4c-0.4,1.2-1.1,2.2-2,3c-0.4,0.4-0.4,0.7,0,1c1,0.8,1.8,1.9,2.4,3.2c0.6,1.3,0.9,2.7,0.9,4
			c0,1.4-0.3,2.7-0.8,3.8c-0.5,1.2-1.2,2.2-2.1,3c-0.9,0.9-2,1.5-3.2,2c-1.2,0.5-2.5,0.7-3.8,0.7h-8.7c-0.3,0-0.5-0.1-0.7-0.3
			c-0.2-0.2-0.3-0.4-0.3-0.7v-31.2c0-0.3,0.1-0.5,0.3-0.7c0.2-0.2,0.4-0.3,0.7-0.3H271.5z M271.5,283.8c1.5,0,2.7-0.5,3.5-1.4
			c0.8-0.9,1.2-2.1,1.2-3.4c0-0.7-0.1-1.3-0.4-1.8c-0.3-0.5-0.6-1-1.1-1.3c-0.4-0.4-1-0.6-1.5-0.8c-0.6-0.2-1.2-0.3-1.8-0.3h-4.8
			c-0.3,0-0.5,0.2-0.5,0.5v8.2c0,0.3,0.2,0.5,0.5,0.5H271.5z M266.7,288.1c-0.1-0.1-0.2,0-0.3,0.1c-0.1,0.1-0.1,0.2-0.1,0.4v9.8
			c0,0.3,0.2,0.5,0.5,0.5h4.8c0.7,0,1.4-0.1,2.1-0.4c0.7-0.3,1.2-0.6,1.7-1.1c0.5-0.5,0.9-1,1.2-1.6c0.3-0.6,0.4-1.3,0.4-2
			c0-0.8-0.2-1.6-0.4-2.3c-0.3-0.7-0.7-1.3-1.2-1.8c-0.5-0.5-1.1-0.9-1.7-1.1c-0.7-0.3-1.4-0.4-2.1-0.4H266.7z"/>
		<path class="st0" d="M303.2,295.3c-0.1-0.4-0.4-0.7-0.9-0.7h-7.8c-0.4,0-0.7,0.2-0.9,0.7l-2.1,7.2c-0.2,0.5-0.5,0.7-0.9,0.7H288
			c-0.4,0-0.6-0.1-0.8-0.3c-0.2-0.2-0.2-0.4-0.1-0.6l8.8-31.4c0.1-0.5,0.4-0.7,0.9-0.7h3.3c0.5,0,0.8,0.2,0.9,0.7l8.8,31.4
			c0.1,0.2,0,0.4-0.1,0.6c-0.2,0.2-0.4,0.3-0.8,0.3h-2.6c-0.4,0-0.7-0.2-0.9-0.7L303.2,295.3z M301.3,290.3c0.3,0,0.5-0.2,0.4-0.5
			l-3.1-13.2c-0.1-0.2-0.1-0.3-0.2-0.3h-0.1c-0.1,0-0.2,0.1-0.2,0.3l-3.1,13.2c-0.1,0.3,0,0.5,0.4,0.5H301.3z"/>
		<path class="st0" d="M321.7,298.3c0,0.3,0.2,0.5,0.5,0.5h10.6c0.3,0,0.5,0.1,0.7,0.3c0.2,0.2,0.3,0.4,0.3,0.7v2.6
			c0,0.3-0.1,0.5-0.3,0.7c-0.2,0.2-0.4,0.3-0.7,0.3h-14.6c-0.3,0-0.5-0.1-0.7-0.3c-0.2-0.2-0.3-0.4-0.3-0.7v-31.2
			c0-0.3,0.1-0.5,0.3-0.7c0.2-0.2,0.4-0.3,0.7-0.3h2.6c0.3,0,0.5,0.1,0.7,0.3c0.2,0.2,0.3,0.4,0.3,0.7V298.3z"/>
		<path class="st0" d="M346,298.3c0,0.3,0.2,0.5,0.5,0.5H357c0.3,0,0.5,0.1,0.7,0.3c0.2,0.2,0.3,0.4,0.3,0.7v2.6
			c0,0.3-0.1,0.5-0.3,0.7c-0.2,0.2-0.4,0.3-0.7,0.3h-14.6c-0.3,0-0.5-0.1-0.7-0.3c-0.2-0.2-0.3-0.4-0.3-0.7v-31.2
			c0-0.3,0.1-0.5,0.3-0.7c0.2-0.2,0.4-0.3,0.7-0.3h2.6c0.3,0,0.5,0.1,0.7,0.3c0.2,0.2,0.3,0.4,0.3,0.7V298.3z"/>
		<path class="st0" d="M167.8,327.2c0.2-0.2,0.4-0.3,0.7-0.3h2.6c0.3,0,0.5,0.1,0.7,0.3c0.2,0.2,0.3,0.4,0.3,0.7V359
			c0,0.3-0.1,0.5-0.3,0.7c-0.2,0.2-0.4,0.3-0.7,0.3h-2.6c-0.3,0-0.5-0.1-0.7-0.3c-0.2-0.2-0.3-0.4-0.3-0.7v-13.2
			c0-0.3-0.2-0.5-0.5-0.5h-10.4c-0.3,0-0.5,0.2-0.5,0.5V359c0,0.3-0.1,0.5-0.3,0.7c-0.2,0.2-0.4,0.3-0.7,0.3h-2.6
			c-0.3,0-0.5-0.1-0.7-0.3c-0.2-0.2-0.3-0.4-0.3-0.7v-31.2c0-0.3,0.1-0.5,0.3-0.7c0.2-0.2,0.4-0.3,0.7-0.3h2.6
			c0.3,0,0.5,0.1,0.7,0.3c0.2,0.2,0.3,0.4,0.3,0.7v12.5c0,0.3,0.2,0.5,0.5,0.5H167c0.3,0,0.5-0.2,0.5-0.5v-12.5
			C167.5,327.6,167.6,327.4,167.8,327.2z"/>
		<path class="st0" d="M195.6,352c-0.1-0.4-0.4-0.7-0.9-0.7h-7.8c-0.4,0-0.7,0.2-0.9,0.7l-2.1,7.2c-0.2,0.5-0.5,0.7-0.9,0.7h-2.6
			c-0.4,0-0.6-0.1-0.8-0.3c-0.2-0.2-0.2-0.4-0.1-0.6l8.8-31.4c0.1-0.5,0.4-0.7,0.9-0.7h3.3c0.5,0,0.8,0.2,0.9,0.7l8.8,31.4
			c0.1,0.2,0,0.4-0.1,0.6c-0.2,0.2-0.4,0.3-0.8,0.3h-2.6c-0.4,0-0.7-0.2-0.9-0.7L195.6,352z M193.7,347c0.3,0,0.5-0.2,0.4-0.5
			l-3.1-13.2c-0.1-0.2-0.1-0.3-0.2-0.3h-0.1c-0.1,0-0.2,0.1-0.2,0.3l-3.1,13.2c-0.1,0.3,0,0.5,0.4,0.5H193.7z"/>
		<path class="st0" d="M214.1,355c0,0.3,0.2,0.5,0.5,0.5h10.6c0.3,0,0.5,0.1,0.7,0.3c0.2,0.2,0.3,0.4,0.3,0.7v2.6
			c0,0.3-0.1,0.5-0.3,0.7c-0.2,0.2-0.4,0.3-0.7,0.3h-14.6c-0.3,0-0.5-0.1-0.7-0.3c-0.2-0.2-0.3-0.4-0.3-0.7v-31.2
			c0-0.3,0.1-0.5,0.3-0.7c0.2-0.2,0.4-0.3,0.7-0.3h2.6c0.3,0,0.5,0.1,0.7,0.3c0.2,0.2,0.3,0.4,0.3,0.7V355z"/>
		<path class="st0" d="M238.4,355c0,0.3,0.2,0.5,0.5,0.5h10.6c0.3,0,0.5,0.1,0.7,0.3c0.2,0.2,0.3,0.4,0.3,0.7v2.6
			c0,0.3-0.1,0.5-0.3,0.7c-0.2,0.2-0.4,0.3-0.7,0.3h-14.6c-0.3,0-0.5-0.1-0.7-0.3c-0.2-0.2-0.3-0.4-0.3-0.7v-31.2
			c0-0.3,0.1-0.5,0.3-0.7c0.2-0.2,0.4-0.3,0.7-0.3h2.6c0.3,0,0.5,0.1,0.7,0.3c0.2,0.2,0.3,0.4,0.3,0.7V355z"/>
		<path class="st0" d="M283.4,326.5c1.4,0,2.7,0.2,3.9,0.7c1.2,0.5,2.3,1.1,3.2,2c0.9,0.8,1.7,1.9,2.3,3.1c0.6,1.2,1,2.6,1.2,4.1
			c0.1,0.9,0.2,2,0.3,3.3c0,1.2,0.1,2.5,0.1,3.8c0,1.3,0,2.6-0.1,3.8c-0.1,1.2-0.1,2.3-0.2,3.3c-0.2,1.3-0.5,2.5-1,3.7
			c-0.5,1.2-1.3,2.2-2.1,3.1c-0.9,0.9-2,1.6-3.2,2.1c-1.3,0.5-2.7,0.8-4.2,0.8c-1.4,0-2.7-0.2-3.9-0.7c-1.2-0.5-2.3-1.1-3.2-2
			c-0.9-0.8-1.7-1.9-2.3-3.1c-0.6-1.2-1-2.6-1.2-4.1c-0.1-0.9-0.2-2-0.3-3.3c-0.1-1.2-0.1-2.5-0.1-3.8c0-1.3,0-2.6,0.1-3.8
			c0.1-1.2,0.2-2.3,0.3-3.3c0.2-1.3,0.5-2.5,1-3.7c0.5-1.2,1.3-2.2,2.1-3.1c0.9-0.9,2-1.6,3.2-2.2S281.8,326.5,283.4,326.5z
			 M283.4,355.8c1.6,0,3-0.5,4.1-1.4c1.1-0.9,1.8-2.2,2.1-3.9c0.1-1,0.2-2.1,0.3-3.3c0.1-1.2,0.1-2.5,0.1-3.8c0-1.3,0-2.5-0.1-3.8
			c-0.1-1.2-0.2-2.3-0.3-3.3c-0.1-0.7-0.3-1.4-0.6-2c-0.3-0.6-0.7-1.2-1.2-1.7c-0.5-0.5-1.1-0.9-1.8-1.2c-0.7-0.3-1.5-0.4-2.5-0.4
			c-1.5,0-2.9,0.5-4.1,1.4c-1.2,0.9-1.9,2.2-2.1,4c-0.1,1-0.2,2.1-0.3,3.3c-0.1,1.2-0.1,2.5-0.1,3.8c0,1.3,0,2.5,0.1,3.8
			c0.1,1.2,0.2,2.3,0.3,3.3c0.1,0.7,0.3,1.4,0.6,2c0.3,0.6,0.7,1.2,1.2,1.7s1.1,0.9,1.9,1.2C281.6,355.7,282.4,355.8,283.4,355.8z"
			/>
		<path class="st0" d="M308.3,345.8V359c0,0.3-0.1,0.5-0.3,0.7c-0.2,0.2-0.4,0.3-0.7,0.3h-2.6c-0.3,0-0.5-0.1-0.7-0.3
			c-0.2-0.2-0.3-0.4-0.3-0.7v-31.2c0-0.3,0.1-0.5,0.3-0.7c0.2-0.2,0.4-0.3,0.7-0.3H320c0.3,0,0.5,0.1,0.7,0.3
			c0.2,0.2,0.3,0.4,0.3,0.7v2.6c0,0.3-0.1,0.5-0.3,0.7c-0.2,0.2-0.4,0.3-0.7,0.3h-11.2c-0.3,0-0.5,0.2-0.5,0.5v8.5
			c0,0.3,0.2,0.5,0.5,0.5h10.7c0.3,0,0.5,0.1,0.7,0.3s0.3,0.4,0.3,0.7v2.6c0,0.3-0.1,0.5-0.3,0.7c-0.2,0.2-0.4,0.3-0.7,0.3h-10.7
			C308.4,345.3,308.3,345.5,308.3,345.8z"/>
		<path class="st0" d="M348.8,345.8V359c0,0.3-0.1,0.5-0.3,0.7c-0.2,0.2-0.4,0.3-0.7,0.3h-2.6c-0.3,0-0.5-0.1-0.7-0.3
			c-0.2-0.2-0.3-0.4-0.3-0.7v-31.2c0-0.3,0.1-0.5,0.3-0.7c0.2-0.2,0.4-0.3,0.7-0.3h15.3c0.3,0,0.5,0.1,0.7,0.3
			c0.2,0.2,0.3,0.4,0.3,0.7v2.6c0,0.3-0.1,0.5-0.3,0.7c-0.2,0.2-0.4,0.3-0.7,0.3h-11.2c-0.3,0-0.5,0.2-0.5,0.5v8.5
			c0,0.3,0.2,0.5,0.5,0.5H360c0.3,0,0.5,0.1,0.7,0.3c0.2,0.2,0.3,0.4,0.3,0.7v2.6c0,0.3-0.1,0.5-0.3,0.7c-0.2,0.2-0.4,0.3-0.7,0.3
			h-10.7C349,345.3,348.8,345.5,348.8,345.8z"/>
		<path class="st0" d="M381.3,352c-0.1-0.4-0.4-0.7-0.9-0.7h-7.8c-0.4,0-0.7,0.2-0.9,0.7l-2.1,7.2c-0.2,0.5-0.5,0.7-0.9,0.7h-2.6
			c-0.4,0-0.6-0.1-0.8-0.3c-0.2-0.2-0.2-0.4-0.1-0.6l8.8-31.4c0.1-0.5,0.4-0.7,0.9-0.7h3.3c0.5,0,0.8,0.2,0.9,0.7l8.8,31.4
			c0.1,0.2,0,0.4-0.1,0.6c-0.2,0.2-0.4,0.3-0.8,0.3h-2.6c-0.4,0-0.7-0.2-0.9-0.7L381.3,352z M379.5,347c0.3,0,0.5-0.2,0.4-0.5
			l-3.1-13.2c-0.1-0.2-0.1-0.3-0.2-0.3h-0.1c-0.1,0-0.2,0.1-0.2,0.3l-3.1,13.2c-0.1,0.3,0,0.5,0.4,0.5H379.5z"/>
		<path class="st0" d="M408.6,351c0.1,0.2,0.1,0.2,0.2,0.2c0.1,0,0.2-0.1,0.2-0.2l6.5-23.3c0.1-0.5,0.5-0.8,1-0.8h4.8
			c0.3,0,0.5,0.1,0.7,0.3c0.2,0.2,0.3,0.4,0.3,0.7V359c0,0.3-0.1,0.5-0.3,0.7c-0.2,0.2-0.4,0.3-0.7,0.3h-2.5c-0.3,0-0.5-0.1-0.7-0.3
			c-0.2-0.2-0.3-0.4-0.3-0.7v-23.6c0-0.2-0.1-0.2-0.2-0.2c-0.1,0-0.2,0-0.2,0.1l-6.8,23.8c-0.2,0.5-0.5,0.8-1,0.8h-2
			c-0.5,0-0.8-0.3-1-0.8l-6.8-23.8c0-0.1-0.1-0.1-0.2-0.1c-0.1,0-0.2,0.1-0.2,0.2V359c0,0.3-0.1,0.5-0.3,0.7
			c-0.2,0.2-0.4,0.3-0.7,0.3h-2.5c-0.3,0-0.5-0.1-0.7-0.3c-0.2-0.2-0.3-0.4-0.3-0.7v-31.2c0-0.3,0.1-0.5,0.3-0.7
			c0.2-0.2,0.4-0.3,0.7-0.3h4.8c0.5,0,0.9,0.3,1,0.8L408.6,351z"/>
		<path class="st0" d="M437.3,355c0,0.3,0.2,0.5,0.5,0.5h11.3c0.3,0,0.5,0.1,0.7,0.3s0.3,0.4,0.3,0.7v2.6c0,0.3-0.1,0.5-0.3,0.7
			c-0.2,0.2-0.4,0.3-0.7,0.3h-15.3c-0.3,0-0.5-0.1-0.7-0.3c-0.2-0.2-0.3-0.4-0.3-0.7v-31.2c0-0.3,0.1-0.5,0.3-0.7
			c0.2-0.2,0.4-0.3,0.7-0.3H449c0.3,0,0.5,0.1,0.7,0.3c0.2,0.2,0.3,0.4,0.3,0.7v2.6c0,0.3-0.1,0.5-0.3,0.7c-0.2,0.2-0.4,0.3-0.7,0.3
			h-11.2c-0.3,0-0.5,0.2-0.5,0.5v8.5c0,0.3,0.2,0.5,0.5,0.5h10.7c0.3,0,0.5,0.1,0.7,0.3s0.3,0.4,0.3,0.7v2.6c0,0.3-0.1,0.5-0.3,0.7
			c-0.2,0.2-0.4,0.3-0.7,0.3h-10.7c-0.3,0-0.5,0.2-0.5,0.5V355z"/>
	</g>
	<g>
		<path class="st1" d="M150,384.7l0.2-1.7l6.5,0.1l6.2-0.1l0.2,1.7l-4,0.6v12.5h15.1v-12.5l-4.2-0.6l0.2-1.7l6.5,0.1l6.2-0.1
			l0.2,1.7l-4,0.6v28.6l4,0.6l-0.2,1.7l-6.2-0.1l-6.5,0.1l-0.2-1.7l4.2-0.6v-13.7h-15.1v13.7l4,0.6l-0.2,1.7l-6.2-0.1l-6.5,0.1
			l-0.2-1.7l4.2-0.6v-28.6L150,384.7z"/>
		<path class="st1" d="M207.3,404.6c0,7-4.3,11.1-11.6,12.3c-6.3,0-10.5-4.9-10.5-11.3c0-7.1,4.3-11.1,11.6-12.3
			C203.1,393.2,207.3,398.1,207.3,404.6z M196.9,414.5c3.8,0,5.7-3.9,5.7-9c0-6-2.9-10-7-10c-3.8,0-5.7,3.9-5.7,9
			C189.9,409.9,192.7,414.5,196.9,414.5z"/>
		<path class="st1" d="M215.6,416l-5.4,0.1l-0.2-1.7l3.3-0.5v-17.2l-3.3,0.3l-0.2-1.7l5.7-1.5l2-0.1l0.2,4l7-4.6c6,0,7,2,7,7.7V414
			l3.6,0.5l-0.2,1.7l-5.4-0.1l-4.5,0.1l-0.2-1.7l2.4-0.5v-13.5c0-2.5-1.1-3.5-3.1-3.5c-1.7,0-3.3,1-4.9,2.1l-1.4,0.9v14l2.6,0.5
			l-0.2,1.7L215.6,416z"/>
		<path class="st1" d="M258.9,404.6c0,7-4.3,11.1-11.6,12.3c-6.3,0-10.5-4.9-10.5-11.3c0-7.1,4.3-11.1,11.6-12.3
			C254.6,393.2,258.9,398.1,258.9,404.6z M248.5,414.5c3.8,0,5.7-3.9,5.7-9c0-6-2.9-10-7-10c-3.8,0-5.7,3.9-5.7,9
			C241.5,409.9,244.3,414.5,248.5,414.5z"/>
		<path class="st1" d="M282.6,410c0,2,0.2,2.8,0.6,3.5h2.4l0.2,1.7l-6.1,1.2l-1.3-3.8l-6.8,4.3c-6.2,0-7.3-2.2-7.3-7.7v-12.3
			l-3.3,0.2l-0.2-1.8l5.7-1.2l2.4-0.2v15.7c0,2.5,1,3.5,3.4,3.5c1.5,0,3.4-1.2,5.1-2.4l0.9-0.6v-13.3l-2.8,0.2l-0.2-1.8l5.2-1.2
			l2.4-0.2V410z"/>
		<path class="st1" d="M295.5,400.1l5.4-6.6h3.8v4.7h-3.5c-1.1,0.2-3.2,1.8-4.5,3.4l-0.9,1.1v11.2l5,0.5l-0.2,1.8l-6.8-0.1l-5.3,0.1
			l-0.2-1.7l3.3-0.5v-17.2l-3.3,0.3l-0.2-1.7l5.7-1.5l1.9-0.1L295.5,400.1z"/>
		<path class="st1" d="M312.7,416l-5.4,0.1l-0.2-1.7l3.3-0.5v-17.2l-3.3,0.3l-0.2-1.7l5.7-1.5l2.4-0.2V414l3.5,0.5l-0.2,1.7
			L312.7,416z M310.4,383.5l3.4-0.2l1.3,0.2l0.2,2.6l-0.5,2.3l-3.4,0.3l-1.3-0.3l-0.3-2.6L310.4,383.5z"/>
		<path class="st1" d="M326.7,416l-5.4,0.1l-0.2-1.7l3.3-0.5v-17.2l-3.3,0.3l-0.2-1.7l5.7-1.5l2-0.1l0.2,4l7-4.6c6,0,7,2,7,7.7V414
			l3.6,0.5l-0.2,1.7l-5.4-0.1l-4.5,0.1l-0.2-1.7l2.4-0.5v-13.5c0-2.5-1.1-3.5-3.1-3.5c-1.7,0-3.3,1-4.9,2.1l-1.4,0.9v14l2.6,0.5
			l-0.2,1.7L326.7,416z"/>
		<path class="st1" d="M364.7,396.1l2.5-2.9h2.8v3.8h-2.8l-1.6,0.8c0.3,0.7,0.5,1.5,0.5,2.3c0,4-2.8,6.8-9.2,8.5
			c-0.7,0-1.3,0-1.8-0.1l-2.5,2.9c0,1,0.7,1.7,1.8,1.7h8.6c4.3,0,6.2,2,6.2,4.9c0,3.9-4.9,7.6-12,9.8c-6.8,0-10.3-2.1-10.3-6.5v-0.8
			l5.1-4c-3.3-1.2-3.5-2.7-3.5-4.9v-0.3l4.7-3.3c-3-1-4.9-3.3-4.9-6.2c0-4,2.7-6.8,9.2-8.5C360.6,393.2,363.2,394.3,364.7,396.1z
			 M353.7,416.8c-2.4,2.6-2.6,3.5-2.6,4.2c0,2.2,2.6,3.9,6.4,3.9c3.9,0,7.2-2.5,7.2-5.7c0-1.7-1.3-2.4-4.5-2.4H353.7z M356.8,395.4
			c-2.5,0-4,2-4,5c0,2.3,1,5.9,4.9,5.9c2.5,0,4-1.7,4-4.5C361.6,399.4,360.7,395.4,356.8,395.4z"/>
		<path class="st1" d="M172.4,461.2c0,7-4.3,11.1-11.6,12.3c-6.3,0-10.5-4.9-10.5-11.3c0-7.1,4.3-11.1,11.6-12.3
			C168.1,449.9,172.4,454.8,172.4,461.2z M161.9,471.2c3.8,0,5.7-3.9,5.7-9c0-6-2.9-10-7-10c-3.8,0-5.7,3.9-5.7,9
			C155,466.6,157.7,471.2,161.9,471.2z"/>
		<path class="st1" d="M196.1,466.6c0,2,0.2,2.8,0.6,3.5h2.4l0.2,1.7l-6.1,1.2l-1.3-3.8l-6.8,4.3c-6.2,0-7.3-2.2-7.3-7.7v-12.3
			l-3.3,0.2l-0.2-1.8l5.7-1.2l2.4-0.2v15.7c0,2.5,1,3.5,3.4,3.5c1.5,0,3.4-1.2,5.1-2.4l0.9-0.6v-13.3l-2.8,0.2l-0.2-1.8l5.2-1.2
			l2.4-0.2V466.6z"/>
		<path class="st1" d="M209,456.7l5.4-6.6h3.8v4.7h-3.5c-1.1,0.2-3.2,1.8-4.5,3.4l-0.9,1.1v11.2l5,0.5l-0.2,1.8l-6.8-0.1l-5.3,0.1
			l-0.2-1.7l3.3-0.5v-17.2l-3.3,0.3l-0.2-1.7l5.7-1.5l1.9-0.1L209,456.7z"/>
		<path class="st1" d="M239,472.5v9.1l5,0.5l-0.2,1.7l-6.8-0.1l-5.4,0.1l-0.2-1.7l3.3-0.5v-28.1l-3.3,0.3l-0.2-1.6l5.7-1.5l2-0.1
			l0.2,3.9l6-4.5c6.1,0,9.6,4.2,9.6,11c0,8-4.8,11.7-11.9,12.6C241.4,473.5,240.1,473.1,239,472.5z M244.9,453.4
			c-1.3,0-2.8,0.8-4.5,2.2l-1.4,1.1v11.9c1.1,1.7,3,2.6,5.1,2.6c3.4,0,5.7-3.4,5.7-8.8C249.8,456.8,247.7,453.4,244.9,453.4z"/>
		<path class="st1" d="M266.9,449.9c5.9,0,7.5,1.5,7.5,7.5v9.3c0,2,0.3,2.8,0.8,3.5h2.4l0.2,1.7l-6.1,1.2l-1.5-3.6l-5.6,4.1
			c-4.1,0-6.9-2.3-6.9-6c0-1.7,0.6-2.9,1.7-4.3l10.6-3.5v-2.4c0-2.8-0.2-4.5-2.8-4.5c-1.3,0-2.8,0.4-3.9,0.8l-0.8,3.7h-4.1v-3.6
			L266.9,449.9z M269.9,461.5l-6.8,2.8c-0.7,0.7-0.9,1.7-0.9,2.6c0,2.4,1.4,3.3,2.7,3.3c1.3,0,2.5-0.8,3.1-1.2l2-1.4V461.5z"/>
		<path class="st1" d="M292.1,453.2c-0.5-0.3-1.9-1-3.6-1c-1.8,0-3.6,1-3.6,2.8c0,1.5,1.2,2.5,3.3,3.5l3.6,1.8
			c3.2,1.6,4.4,3.4,4.4,6.1c0,4.2-3.4,5.9-8.9,7c-2.9,0-5.9-1.4-7.2-2.1l-0.9-5.3h3l1.6,3.9c1,0.7,2.4,1.2,3.9,1.2
			c2.5,0,3.8-1.6,3.8-3.6c0-1.8-1-2.6-3.4-3.9l-3.7-1.9c-2-1-4-2.8-4-5.5c0-3.3,3.1-5.1,8.5-6.3c2.5,0,5.3,1.1,6.7,2.1v4.7h-2.5
			L292.1,453.2z"/>
		<path class="st1" d="M297.9,453.3v-0.8l1.7-1.7h3.1v-3.1l3.1-3.1h1.2v6.5h7.1v2.1h-7.1v13.8c0,1.4,0.5,2.8,2.5,2.8
			c1.4,0,2.4-0.5,3.7-1.1l0.8,1.6l-5.5,3.1c-5.3,0-6-1.9-6-6.1v-14.1H297.9z"/>
		<path class="st1" d="M318.1,472.8l-0.2-2.7l0.2-2.3l3.5-0.2l1.4,0.2l0.2,2.6l-0.2,2.3l-3.1,6.8l-1.7-0.7c0.7-1.7,1.7-4.7,1.7-5.9
			L318.1,472.8z"/>
		<path class="st1" d="M156.8,529.4l-6.5,0.1l-0.2-1.7l4.2-0.6v-28.6L150,498l0.2-1.7l6.5,0.1l6.5-0.1l0.2,1.7l-4.2,0.6v28.6
			l4.2,0.6l-0.2,1.7L156.8,529.4z"/>
		<path class="st1" d="M172.2,529.4l-5.4,0.1l-0.2-1.7l3.3-0.5v-17.2l-3.3,0.3l-0.2-1.7l5.7-1.5l2-0.1l0.2,4l7-4.6c6,0,7,2,7,7.7
			v13.1l3.6,0.5l-0.2,1.7l-5.4-0.1l-4.5,0.1l-0.2-1.7l2.4-0.5v-13.5c0-2.5-1.1-3.5-3.1-3.5c-1.7,0-3.3,1-4.9,2.1l-1.4,0.9v14
			l2.6,0.5l-0.2,1.7L172.2,529.4z"/>
		<path class="st1" d="M206.3,509.9c-0.5-0.3-1.9-1-3.6-1c-1.8,0-3.6,1-3.6,2.8c0,1.5,1.2,2.5,3.3,3.5l3.6,1.8
			c3.2,1.6,4.4,3.4,4.4,6.1c0,4.2-3.4,5.9-8.9,7c-2.9,0-5.9-1.4-7.2-2.1l-0.9-5.3h3l1.6,3.9c1,0.7,2.4,1.2,3.9,1.2
			c2.5,0,3.8-1.6,3.8-3.6c0-1.8-1-2.6-3.4-3.9l-3.7-1.9c-2-1-4-2.8-4-5.5c0-3.3,3.1-5.1,8.5-6.3c2.5,0,5.3,1.1,6.7,2.1v4.7h-2.5
			L206.3,509.9z"/>
		<path class="st1" d="M221,529.2v9.1l5,0.5l-0.2,1.7l-6.8-0.1l-5.4,0.1l-0.2-1.7l3.3-0.5v-28.1l-3.3,0.3l-0.2-1.6l5.7-1.5l2-0.1
			l0.2,3.9l6-4.5c6.1,0,9.6,4.2,9.6,11c0,8-4.8,11.7-11.9,12.6C223.4,530.2,222.1,529.8,221,529.2z M227,510.1
			c-1.3,0-2.8,0.8-4.5,2.2l-1.4,1.1v11.9c1.1,1.7,3,2.6,5.1,2.6c3.4,0,5.7-3.4,5.7-8.8C231.9,513.5,229.8,510.1,227,510.1z"/>
		<path class="st1" d="M245.2,529.4l-5.4,0.1l-0.2-1.7l3.3-0.5v-17.2l-3.3,0.3l-0.2-1.7l5.7-1.5l2.4-0.2v20.3l3.5,0.5l-0.2,1.7
			L245.2,529.4z M242.8,496.9l3.4-0.2l1.3,0.2l0.2,2.6l-0.5,2.3l-3.4,0.3l-1.3-0.3l-0.3-2.6L242.8,496.9z"/>
		<path class="st1" d="M260.9,513.4l5.4-6.6h3.8v4.7h-3.5c-1.1,0.2-3.2,1.8-4.5,3.4l-0.9,1.1v11.2l5,0.5l-0.2,1.8l-6.8-0.1l-5.3,0.1
			l-0.2-1.7l3.3-0.5v-17.2l-3.3,0.3l-0.2-1.7l5.7-1.5l1.9-0.1L260.9,513.4z"/>
		<path class="st1" d="M278.1,529.4l-5.4,0.1l-0.2-1.7l3.3-0.5v-17.2l-3.3,0.3l-0.2-1.7l5.7-1.5l2.4-0.2v20.3l3.5,0.5l-0.2,1.7
			L278.1,529.4z M275.7,496.9l3.4-0.2l1.3,0.2l0.2,2.6l-0.5,2.3l-3.4,0.3l-1.3-0.3l-0.3-2.6L275.7,496.9z"/>
		<path class="st1" d="M292,529.4l-5.4,0.1l-0.2-1.7l3.3-0.5v-17.2l-3.3,0.3l-0.2-1.7l5.7-1.5l2-0.1l0.2,4l7-4.6c6,0,7,2,7,7.7v13.1
			l3.6,0.5l-0.2,1.7l-5.4-0.1l-4.5,0.1l-0.2-1.7l2.4-0.5v-13.5c0-2.5-1.1-3.5-3.1-3.5c-1.7,0-3.3,1-4.9,2.1l-1.4,0.9v14l2.6,0.5
			l-0.2,1.7L292,529.4z"/>
		<path class="st1" d="M330,509.4l2.5-2.9h2.8v3.8h-2.8l-1.6,0.8c0.3,0.7,0.5,1.5,0.5,2.3c0,4-2.8,6.8-9.2,8.5c-0.7,0-1.3,0-1.8-0.1
			l-2.5,2.9c0,1,0.7,1.7,1.8,1.7h8.6c4.3,0,6.2,2,6.2,4.9c0,3.9-4.9,7.7-12,9.8c-6.8,0-10.3-2.1-10.3-6.5v-0.8l5.1-4
			c-3.3-1.2-3.5-2.7-3.5-4.9v-0.3l4.7-3.3c-3-1-4.9-3.3-4.9-6.2c0-4,2.7-6.8,9.2-8.5C325.9,506.6,328.5,507.6,330,509.4z
			 M319.1,530.2c-2.4,2.6-2.6,3.5-2.6,4.2c0,2.2,2.6,3.9,6.4,3.9c3.9,0,7.2-2.5,7.2-5.7c0-1.7-1.3-2.4-4.5-2.4H319.1z M322.1,508.7
			c-2.5,0-4,2-4,5c0,2.3,1,5.9,4.9,5.9c2.5,0,4-1.7,4-4.5C327,512.7,326,508.7,322.1,508.7z"/>
		<path class="st1" d="M172.4,574.6c0,7-4.3,11.1-11.6,12.3c-6.3,0-10.5-4.9-10.5-11.3c0-7.1,4.3-11.1,11.6-12.3
			C168.1,563.2,172.4,568.1,172.4,574.6z M161.9,584.5c3.8,0,5.7-3.9,5.7-9c0-6-2.9-10-7-10c-3.8,0-5.7,3.9-5.7,9
			C155,579.9,157.7,584.5,161.9,584.5z"/>
		<path class="st1" d="M196.1,580c0,2,0.2,2.8,0.6,3.5h2.4l0.2,1.7l-6.1,1.2l-1.3-3.8l-6.8,4.3c-6.2,0-7.3-2.2-7.3-7.7v-12.3
			l-3.3,0.2l-0.2-1.8l5.7-1.2l2.4-0.2v15.7c0,2.5,1,3.5,3.4,3.5c1.5,0,3.4-1.2,5.1-2.4l0.9-0.6v-13.3l-2.8,0.2l-0.2-1.8l5.2-1.2
			l2.4-0.2V580z"/>
		<path class="st1" d="M209,570.1l5.4-6.6h3.8v4.7h-3.5c-1.1,0.2-3.2,1.8-4.5,3.4l-0.9,1.1v11.2l5,0.5l-0.2,1.8l-6.8-0.1l-5.3,0.1
			l-0.2-1.7l3.3-0.5v-17.2l-3.3,0.3l-0.2-1.7l5.7-1.5l1.9-0.1L209,570.1z"/>
		<path class="st1" d="M263.1,582.5l-6.8,4.3c-6.2,0-7.3-2.2-7.3-7.7v-11l0.2-1.9l-1.7,0.3h-7.6V584l5.4,0.3l-0.2,1.8l-7.3-0.1
			l-5.4,0.1l-0.2-1.7l3.3-0.5v-17.4h-4.2v-0.8l1.4-1.7h2.7v-0.5c0-2.8,0.9-4.7,2.6-6.6l4-4.5h5.9v3.8h-6.1l-0.9,1.3
			c-0.7,0.9-1,2.3-1,5.3v1.4h7.6l3.4-0.4l2.4-0.2v15.7c0,2.5,1,3.5,3.4,3.5c1.5,0,3.4-1.2,5.1-2.4l0.9-0.6v-13.3l-2.8,0.2l-0.2-1.8
			l5.2-1.2l2.4-0.2V580c0,2,0.2,2.8,0.6,3.5h2.4l0.2,1.7l-6.1,1.2L263.1,582.5z"/>
		<path class="st1" d="M271.7,566.6v-0.8l1.7-1.7h3.1v-3.1l3.1-3.1h1.2v6.5h7.1v2.1h-7.1v13.8c0,1.4,0.5,2.8,2.5,2.8
			c1.4,0,2.4-0.5,3.7-1.1l0.8,1.6l-5.5,3.1c-5.3,0-6-1.9-6-6.1v-14.1H271.7z"/>
		<path class="st1" d="M310.6,580c0,2,0.2,2.8,0.6,3.5h2.4l0.2,1.7l-6.1,1.2l-1.3-3.8l-6.8,4.3c-6.2,0-7.3-2.2-7.3-7.7v-12.3
			l-3.3,0.2l-0.2-1.8l5.7-1.2l2.4-0.2v15.7c0,2.5,1,3.5,3.4,3.5c1.5,0,3.4-1.2,5.1-2.4l0.9-0.6v-13.3l-2.8,0.2l-0.2-1.8l5.2-1.2
			l2.4-0.2V580z"/>
		<path class="st1" d="M323.5,570.1l5.4-6.6h3.8v4.7h-3.5c-1.1,0.2-3.2,1.8-4.5,3.4l-0.9,1.1v11.2l5,0.5l-0.2,1.8l-6.8-0.1l-5.3,0.1
			l-0.2-1.7l3.3-0.5v-17.2l-3.3,0.3l-0.2-1.7l5.7-1.5l1.9-0.1L323.5,570.1z"/>
		<path class="st1" d="M339.1,574.1c0,5.4,2.9,9.2,7.8,9.2c1.9,0,4.2-0.9,5.9-2l0.8,1.8c-2.3,1.6-5.2,2.9-8.3,3.7
			c-5.7,0-10.9-4.1-10.9-11.5c0-7,4.2-10.7,10.7-12.1c6.2,0,8.4,3.9,8.4,8.9v2H339.1z M348.6,571.7c0-3.6-0.7-6.1-4.3-6.1
			c-2.9,0-4.7,2.7-5.1,6.6L348.6,571.7z"/>
		<path class="st1" d="M356.9,581.2l3.5-0.2l1.4,0.2l0.2,2.6l-0.2,2.3l-3.5,0.2l-1.4-0.2l-0.2-2.7L356.9,581.2z"/>
	</g>
</g>
</svg>
