<?xml version="1.0" standalone="no"?>
<!DOCTYPE svg PUBLIC "-//W3C//DTD SVG 20010904//EN"
 "http://www.w3.org/TR/2001/REC-SVG-20010904/DTD/svg10.dtd">
<svg version="1.0" xmlns="http://www.w3.org/2000/svg"
 width="700.000000pt" height="700.000000pt" viewBox="0 0 700.000000 700.000000"
 preserveAspectRatio="xMidYMid meet">
<metadata>
Created by potrace 1.11, written by Peter Selinger 2001-2013
</metadata>
<g transform="translate(0.000000,700.000000) scale(0.100000,-0.100000)"
fill="#000000" stroke="none">
<path d="M3270 5975 c-36 -6 -117 -22 -180 -34 -63 -11 -125 -23 -137 -25 -11
-3 -43 -8 -70 -12 -65 -9 -93 -21 -88 -36 2 -7 6 -31 9 -53 3 -22 8 -51 11
-65 5 -22 21 -107 40 -210 3 -19 17 -93 30 -165 13 -71 26 -143 29 -160 3 -16
8 -41 11 -55 3 -14 8 -40 11 -57 3 -18 7 -33 8 -33 2 0 52 9 112 20 60 11 123
22 139 25 17 3 41 8 55 10 39 8 68 14 162 31 80 15 86 17 82 37 -3 12 -7 33
-10 47 -12 67 -16 80 -24 80 -5 0 -39 -6 -77 -14 -37 -8 -88 -17 -113 -21 -25
-3 -63 -10 -85 -15 -22 -5 -54 -11 -71 -14 l-31 -6 -17 91 c-9 49 -14 94 -11
99 3 4 38 13 78 20 39 6 88 15 107 20 19 5 53 11 74 15 73 10 87 16 82 34 -3
9 -8 30 -10 46 -11 63 -18 85 -25 81 -4 -3 -47 -12 -96 -20 -50 -9 -101 -18
-115 -21 -60 -12 -77 -15 -102 -20 -32 -7 -31 -10 -53 136 l-6 36 83 16 c46 9
97 19 113 22 17 2 41 7 55 10 14 3 41 8 60 11 69 12 72 13 67 47 -13 84 -20
117 -26 116 -3 -1 -35 -7 -71 -14z"/>
<path d="M4449 5717 c-120 -34 -228 -136 -288 -271 -30 -69 -35 -99 -35 -196
0 -76 4 -93 34 -153 40 -82 99 -138 188 -180 57 -27 78 -32 147 -32 67 0 89 4
135 27 30 15 72 44 93 66 l38 38 -75 39 -75 38 -53 -28 c-46 -24 -61 -27 -100
-21 -64 10 -125 56 -150 114 -69 154 87 412 249 412 103 0 180 -72 188 -175 1
-11 3 -25 3 -32 2 -11 127 -83 144 -83 4 0 10 17 15 38 31 154 -41 292 -192
367 -87 42 -186 54 -266 32z"/>
<path d="M1545 5039 l-59 -61 29 -26 c17 -13 93 -84 170 -156 77 -72 166 -156
199 -186 33 -30 91 -85 130 -122 39 -37 76 -68 82 -68 6 0 31 22 55 48 38 42
183 199 287 310 17 19 32 39 32 45 0 13 -91 96 -107 97 -6 0 -13 -4 -15 -9 -5
-14 -239 -261 -247 -261 -3 0 -29 22 -56 48 -28 26 -104 97 -170 157 -65 61
-150 139 -188 175 -38 36 -72 66 -76 68 -4 1 -34 -25 -66 -59z"/>
<path d="M5633 4741 c-34 -15 -65 -29 -68 -32 -3 -3 15 -51 39 -107 25 -56 47
-110 50 -120 6 -17 -31 -35 -304 -152 -188 -80 -309 -137 -307 -144 36 -89 62
-146 67 -146 3 0 143 58 310 130 166 71 306 127 310 125 4 -2 28 -56 55 -120
26 -63 50 -115 54 -115 16 0 131 54 131 62 0 9 -256 612 -268 634 -5 8 -27 3
-69 -15z"/>
<path d="M1719 3956 c-3 -5 -9 -50 -25 -201 -3 -27 -7 -63 -9 -80 -2 -16 -4
-41 -4 -55 -2 -43 -11 -49 -66 -40 -27 4 -84 11 -125 14 -41 4 -88 8 -105 11
-33 5 -93 12 -170 20 -79 8 -137 15 -177 21 -27 3 -38 1 -39 -8 0 -7 -2 -24
-4 -38 -11 -85 -10 -123 5 -125 8 -1 47 -6 85 -9 39 -4 77 -9 85 -11 8 -2 44
-6 80 -10 36 -3 79 -8 95 -10 17 -3 57 -7 90 -10 55 -5 95 -9 180 -20 17 -2
59 -7 95 -10 36 -4 70 -8 77 -10 20 -7 23 6 38 160 3 33 8 71 10 85 2 14 7 54
10 90 7 72 11 114 20 178 3 23 2 42 -2 43 -4 0 -19 2 -33 4 -35 5 -110 13
-111 11z"/>
<path d="M5196 3244 c-3 -11 -8 -41 -11 -69 -4 -27 -8 -57 -11 -66 -5 -18 8
-22 161 -44 62 -9 163 -25 181 -29 26 -5 87 -15 129 -21 17 -3 41 -7 55 -10
13 -2 42 -7 65 -10 22 -3 78 -12 125 -20 103 -18 107 -18 107 -2 1 16 12 94
19 130 4 20 2 27 -10 28 -9 1 -19 2 -23 3 -5 1 -30 5 -56 10 -27 4 -58 9 -70
12 -12 2 -39 6 -62 9 -22 3 -62 10 -90 15 -48 9 -343 58 -395 65 -14 2 -44 7
-66 10 -36 6 -43 4 -48 -11z"/>
<path d="M1730 2723 c-158 -27 -306 -134 -371 -270 -30 -61 -33 -77 -34 -158
0 -81 3 -97 32 -157 87 -184 277 -269 471 -209 273 85 412 358 296 582 -46 90
-145 175 -230 198 -48 13 -131 20 -164 14z m168 -187 c94 -49 133 -178 82
-275 -70 -135 -273 -220 -390 -163 -45 23 -96 91 -105 142 -16 96 46 205 153
267 86 51 195 63 260 29z"/>
<path d="M4913 2488 l-52 -63 27 -21 c15 -12 38 -32 52 -44 36 -32 111 -95
140 -118 l24 -20 -99 -118 c-55 -66 -106 -127 -114 -137 -12 -16 -9 -21 29
-55 63 -54 69 -57 88 -35 21 22 159 185 188 221 l21 26 81 -69 c91 -77 89 -63
20 -140 -14 -16 -63 -73 -107 -125 l-80 -95 27 -23 c15 -13 42 -35 60 -49 l32
-25 21 26 c11 14 26 32 32 39 7 6 37 41 67 77 30 36 57 67 60 70 3 3 27 32 55
65 27 33 52 62 55 65 3 3 19 22 35 44 l29 38 -24 20 c-14 11 -41 33 -60 50
-19 16 -147 125 -283 241 -137 117 -254 213 -260 215 -7 1 -35 -26 -64 -60z"/>
<path d="M2820 1856 c-49 -16 -90 -39 -126 -72 -42 -39 -87 -101 -77 -107 4
-3 41 -15 81 -27 l73 -21 36 31 c62 55 119 64 195 31 109 -46 146 -170 98
-321 -42 -134 -128 -207 -235 -198 -90 8 -161 71 -167 150 -2 21 -12 27 -81
47 -43 12 -81 20 -84 17 -13 -12 -2 -109 18 -161 61 -164 294 -258 469 -190
96 38 196 139 230 231 6 16 13 36 17 44 34 82 36 214 4 305 -40 112 -114 187
-227 226 -68 24 -174 31 -224 15z"/>
<path d="M4005 1532 c-137 -35 -252 -66 -254 -68 -7 -6 21 -114 30 -114 20 0
495 123 503 131 9 8 -10 97 -23 110 -3 3 -118 -23 -256 -59z"/>
</g>
</svg>
