<svg xmlns="http://www.w3.org/2000/svg" viewBox="0 0 187.76 40"><defs><style>.cls-1{fill:#eee;}</style></defs><title>collectif-wordmark</title><g id="Layer_2" data-name="Layer 2"><g id="Layer_1-2" data-name="Layer 1"><path class="cls-1" d="M16.66,2.15c8.3,0,13.55,4.78,14.92,12.12H25.49c-1.43-3.88-3.94-6.51-8.83-6.51-6.45,0-10.39,5.61-10.39,13.31s3.88,13.32,10.39,13.32c4.89,0,7.4-2.63,8.83-6.57h6.09C30.21,35.22,24.9,40,16.66,40,7.22,40,0,32.36,0,21.07S7.22,2.15,16.66,2.15Z"/><path class="cls-1" d="M47,40c-7.46,0-12.59-5.73-12.59-13.85S39.58,12.3,47,12.3,59.64,18,59.64,26.15,54.51,40,47,40Zm0-22.57c-4.29,0-6.62,3.7-6.62,8.72s2.33,8.72,6.62,8.72,6.63-3.71,6.63-8.72S51.34,17.43,47,17.43Z"/><path class="cls-1" d="M70,39.4H64V.6h6Z"/><path class="cls-1" d="M81,39.4H75V.6h6Z"/><path class="cls-1" d="M109,31.16c-.89,5.26-4.77,8.84-11.16,8.84-7.4,0-12.54-5.61-12.54-13.79,0-7.94,5.2-13.91,12.42-13.91,7.46,0,11.52,5.31,11.52,13.07v2.15H91.16C91.34,32.18,94,35,97.85,35c2.87,0,5-1.26,5.67-3.83Zm-17.67-8h12c-.06-3.22-1.91-5.85-5.55-5.85C94.51,17.31,92.06,19.34,91.34,23.16Z"/><path class="cls-1" d="M125.43,12.3c6.33,0,10.33,3.58,11.11,8.89h-6c-.48-2.38-2.45-3.7-5.08-3.7-4,0-6.45,3.64-6.45,8.66s2.45,8.66,6.45,8.66c2.63,0,4.6-1.32,5.08-3.71h6c-.78,5.32-4.78,8.9-11.11,8.9-7.16,0-12.36-5.61-12.36-13.85S118.27,12.3,125.43,12.3Z"/><path class="cls-1" d="M142.33,17.85h-4.18v-5h4.18V5.79h6V12.9h6v5h-6V31.58c0,2.15,1.19,3.11,3.16,3.11a6.32,6.32,0,0,0,3.4-1.08V39a9.16,9.16,0,0,1-4.47,1c-4.72,0-8.06-2.51-8.06-7.76Z"/><path class="cls-1" d="M162.75,8.54A3.71,3.71,0,0,1,159,4.9a3.71,3.71,0,0,1,7.41,0A3.7,3.7,0,0,1,162.75,8.54Zm3,30.86h-6V12.9h6Z"/><path class="cls-1" d="M187.76,6a5.32,5.32,0,0,0-2.92-.84c-2.39,0-3.89,1.44-3.89,4.06V12.9h5.8v5H181V39.4H175.1V17.85h-4.59v-5h4.59V8.78c0-5.68,3.76-8.78,8.72-8.78a9.06,9.06,0,0,1,3.94.72Z"/></g></g></svg>